<svg width="60" height="80" viewBox="0 0 60 80" fill="none" xmlns="http://www.w3.org/2000/svg">
<path d="M55.1137 48.04L43.8637 59.29C43.8637 59.29 43.8637 59.29 43.8637 59.3V71.19C43.8637 75.42 47.1437 79.03 51.3737 79.18C55.6037 79.33 59.4537 75.78 59.4537 71.39V54.99C59.4537 51.95 57.7037 49.31 55.1537 48.03C55.1537 48.03 55.1437 48.03 55.1337 48.03L55.1137 48.04Z" fill="#F6AE24"/>
<path d="M46.0737 70.36C45.7037 70.36 45.3937 70.66 45.3937 71.04C45.3937 76.52 50.4637 77.29 50.5137 77.3C50.8737 77.34 51.2237 77.1 51.2737 76.73C51.3237 76.36 51.0737 76.02 50.7037 75.96C50.5437 75.94 46.7437 75.33 46.7437 71.05C46.7437 70.68 46.4437 70.37 46.0637 70.37L46.0737 70.36Z" fill="white"/>
<path d="M46.0737 68.92C46.4658 68.92 46.7837 68.6021 46.7837 68.21C46.7837 67.8178 46.4658 67.5 46.0737 67.5C45.6816 67.5 45.3637 67.8178 45.3637 68.21C45.3637 68.6021 45.6816 68.92 46.0737 68.92Z" fill="white"/>
<path d="M29.3137 55.91C31.6437 58.23 35.2737 58.35 37.4337 56.18L56.1837 37.43C58.3537 35.27 58.2237 31.64 55.9137 29.31C55.2837 28.68 54.5337 28.2 53.7437 27.89C53.4237 27.77 53.0837 27.83 52.8537 28.06L28.0737 52.84C27.8437 53.07 27.7837 53.41 27.9037 53.73C28.2137 54.53 28.6837 55.27 29.3237 55.9L29.3137 55.91Z" fill="#F6AE24"/>
<path d="M20.2237 0.00997251C19.9637 -0.0300275 19.7037 0.0499725 19.5237 0.229973L0.233692 19.53C0.0536921 19.71 -0.0363079 19.97 0.0136921 20.23C0.213692 21.42 0.833692 25.04 1.77369 28.89C1.92369 29.53 2.72369 29.76 3.17369 29.31L29.3037 3.16997C29.7537 2.71997 29.5237 1.92997 28.8837 1.76997C25.0437 0.829972 21.4237 0.209973 20.2237 0.00997251Z" fill="#F6AE24"/>
<path d="M4.30369 36.08C4.06369 36.32 4.00369 36.69 4.15369 37.01C4.77369 38.32 6.27369 41.29 8.09369 43.65C8.40369 44.05 8.99369 44.1 9.34369 43.75L43.7537 9.33997C44.1037 8.98997 44.0537 8.39997 43.6537 8.08997C41.2837 6.27997 38.3237 4.77997 37.0137 4.14997C36.6937 3.99997 36.3237 4.05997 36.0837 4.29997L4.30369 36.08Z" fill="#F6AE24"/>
<path d="M50.4937 17.6C50.0137 16.08 49.3037 14.69 48.5337 13.48C48.2537 13.04 47.6337 12.98 47.2637 13.35L13.3437 47.27C12.9737 47.64 13.0337 48.26 13.4737 48.54C14.6937 49.31 16.0737 50.02 17.5937 50.5C17.5937 50.5 19.1437 50.99 21.2137 51.54C21.4937 51.61 21.7937 51.54 21.9937 51.33L51.3137 22.01C51.5137 21.81 51.6037 21.51 51.5237 21.23C50.9837 19.16 50.4837 17.61 50.4837 17.61L50.4937 17.6Z" fill="#F6AE24"/>
</svg>
